<?xml version="1.0" encoding="UTF-8" standalone="no"?>
<svg width="100%" height="100%" viewBox="0 0 300 300" version="1.1" xmlns="http://www.w3.org/2000/svg" xmlns:xlink="http://www.w3.org/1999/xlink" xmlns:sketch="http://www.bohemiancoding.com/sketch/ns">
    <!-- Generator: Sketch 3.2.2 (9983) - http://www.bohemiancoding.com/sketch -->
    <title>photo-bg</title>
    <desc>Created with Sketch.</desc>
    <defs></defs>
    <g id="Welcome" stroke="none" stroke-width="1" fill="none" fill-rule="evenodd" sketch:type="MSPage">
        <g id="photo-bg" sketch:type="MSArtboardGroup" fill="#333333">
            <path d="M95.8345114,135.436997 C91.6680552,135.436997 88.2906337,132.046792 88.2906337,127.864565 L62.4467621,127.864565 C62.4467621,132.046792 59.0693406,135.436997 54.9028844,135.436997 L48,135.436997 L48,216 L180.266933,216 L180.266933,135.436997 L95.8345114,135.436997 L95.8345114,135.436997 Z M88.2901143,159.284188 L62.4467621,159.284188 L62.4467621,148.005576 L88.2901143,148.005576 L88.2901143,159.284188 L88.2901143,159.284188 Z M133.717005,203.91581 C118.40485,203.91581 105.947037,191.411886 105.947037,176.041251 C105.947037,160.670616 118.40485,148.810111 133.717005,148.810111 C149.02968,148.810111 161.486973,160.670616 161.486973,176.041251 C161.486973,191.411886 149.02968,203.91581 133.717005,203.91581 L133.717005,203.91581 Z M148.645811,176.041251 C148.645811,184.303508 141.948626,191.026043 133.717525,191.026043 C125.486423,191.026043 118.789238,184.302987 118.789238,176.041251 C118.789238,167.777951 125.486423,161.05646 133.717525,161.05646 C141.948626,161.05646 148.645811,167.778473 148.645811,176.041251 L148.645811,176.041251 Z M252,129.188424 L218.587317,215.794565 L191.695209,205.340301 L191.695209,190.580759 L210.753071,197.989468 L234.264122,137.052324 L146.16339,102.802489 L137.997739,123.965985 L123.295411,123.965985 L138.328624,85 L252,129.188424 L252,129.188424 Z" id="picture-4-icon" sketch:type="MSShapeGroup"></path>
        </g>
    </g>
</svg>
