<svg width="300" height="300" viewBox="0 0 300 300" xmlns="http://www.w3.org/2000/svg"><title>photo-bg</title><g fill="none" fill-rule="evenodd"><path d="M95.835 135.437c-4.167 0-7.544-3.39-7.544-7.572H62.448c0 4.182-3.378 7.572-7.544 7.572H48V216h132.267v-80.563H95.835zm-7.545 23.847H62.447v-11.278H88.29v11.278zm45.427 44.632c-15.312 0-27.77-12.504-27.77-27.875 0-15.37 12.458-27.23 27.77-27.23 15.313 0 27.77 11.86 27.77 27.23 0 15.372-12.457 27.876-27.77 27.876zm14.93-27.875c0 8.264-6.698 14.986-14.93 14.986-8.23 0-14.928-6.723-14.928-14.985s6.696-14.984 14.928-14.984c8.23 0 14.928 6.722 14.928 14.985zm69.94 39.755l-26.892-10.455v-14.76l19.058 7.41 23.51-60.938-88.1-34.25-8.165 21.164h-14.703L138.33 85 252 129.188l-33.413 86.607z" opacity=".697" fill-opacity=".916" fill="#434343"/><ellipse opacity=".697" fill="#FFA1CB" cx="133.899" cy="176" rx="15.101" ry="15"/><path d="M62 148h27v12H62z"/></g></svg>