<svg viewBox="0 0 41 34" xmlns="http://www.w3.org/2000/svg"><title>View Photos Icon</title><desc>Stacked outline of two photos overlapping each other with an eye in a circle that represents the button.</desc><g class="svg-view-photos" stroke="#0063DB" fill="#FFF"><path d="M.167 6.577l16.57-5.406L25.7 25.843 9.133 31.248.167 6.578z"/><path d="M25.45.355l15.02 8.552-14.183 22.366-15.02-8.552L25.448.356z"/><g stroke-width=".7"><ellipse cx="7.835" cy="7.512" rx="7.835" ry="7.512"/><path d="M7.842 4.56c-3.512 0-5.575 2.762-5.575 2.762s2.243 3.14 5.575 3.14c3.588 0 5.56-3.14 5.56-3.14s-1.99-2.762-5.56-2.762zm.047 5.017c-1.195 0-2.163-.925-2.163-2.065s.968-2.066 2.162-2.066c1.193 0 2.16.925 2.16 2.066 0 1.14-.967 2.065-2.16 2.065zm1.215-2.065c0 .64-.544 1.16-1.216 1.16-.673 0-1.217-.52-1.217-1.16 0-.077.008-.152.023-.225.597.21 1.186-.342.975-.918.072-.013.144-.02.22-.02.67 0 1.215.52 1.215 1.162z"/></g></g></svg>