<svg width="100%" height="100%" viewBox="0 0 41 34" xmlns="http://www.w3.org/2000/svg" xmlns:xlink="http://www.w3.org/1999/xlink">
  <title>View Photos Icon</title>
  <desc>Stacked outline of two photos overlapping each other with an eye in a circle that represents the button.</desc>
  <g class="svg-view-photos" stroke='#0063DB' fill='#FFFFFF' stroke-width="1">
    <g>
      <path d="M0.167039564,6.57655605 L16.7356901,1.17061042 L25.7007591,25.8420486 L9.13210855,31.2479942 L0.167039564,6.57655605 L0.167039564,6.57655605 Z"></path>
      <path d="M25.4488001,0.354896548 L40.4692405,8.90692412 L26.2867973,31.2730104 L11.2663568,22.7209829 L25.4488001,0.354896548 L25.4488001,0.354896548 Z"></path>
    </g>
    <g stroke-width="0.7">
      <ellipse cx="7.83505155" cy="7.51162791" rx="7.83505155" ry="7.51162791"></ellipse>
      <path d="M7.84180896,4.55988372 C4.33019846,4.55988372 2.26694451,7.3222871 2.26694451,7.3222871 C2.26694451,7.3222871 4.51040511,10.4633721 7.84180896,10.4633721 C11.4299944,10.4633721 13.4031586,7.3222871 13.4031586,7.3222871 C13.4031586,7.3222871 11.4119927,4.55988372 7.84180896,4.55988372 L7.84180896,4.55988372 Z M7.88911084,9.57697623 C6.69483297,9.57697623 5.72673917,8.65231978 5.72673917,7.51162791 C5.72673917,6.37096185 6.69483297,5.44627959 7.88911084,5.44627959 C9.08336168,5.44627959 10.0514825,6.37096185 10.0514825,7.51162791 C10.0514825,8.65231978 9.08336168,9.57697623 7.88911084,9.57697623 L7.88911084,9.57697623 Z M9.1054449,7.51162791 C9.1054449,8.15328 8.56087863,8.67338634 7.88911084,8.67338634 C7.21731602,8.67338634 6.67277678,8.15328 6.67277678,7.51162791 C6.67277678,7.4347195 6.68080458,7.35959245 6.69575197,7.28686638 C7.2934315,7.49637015 7.88221828,6.94520613 7.67068427,6.36892231 C7.74158303,6.35660768 7.81448199,6.34986948 7.88911084,6.34986948 C8.56087863,6.34986948 9.1054449,6.87000163 9.1054449,7.51162791 L9.1054449,7.51162791 Z"></path>
    </g>
  </g>
</svg>
